HIERARCHY
ROOT hip
{
	OFFSET 0.000000 0.000000 0.000000
	CHANNELS 6 Xposition Yposition Zposition Xrotation Zrotation Yrotation 
	JOINT abdomen
	{
		OFFSET 0.000000 3.422050 0.000000
		CHANNELS 3 Xrotation Zrotation Yrotation 
		JOINT chest
		{
			OFFSET 0.000000 8.486693 -0.684411
			CHANNELS 3 Xrotation Zrotation Yrotation 
			JOINT neck
			{
				OFFSET 0.000000 10.266162 -0.273764
				CHANNELS 3 Xrotation Zrotation Yrotation 
				JOINT head
				{
					OFFSET 0.000000 3.148285 0.000000
					CHANNELS 3 Xrotation Zrotation Yrotation 
					End Site
					{
						OFFSET 0.000000 3.148289 0.000000
					}
				}
			}
			JOINT lCollar
			{
				OFFSET 3.422053 6.707223 -0.821293
				CHANNELS 3 Yrotation Zrotation Xrotation 
				JOINT lShldr
				{
					OFFSET 3.285171 0.000000 0.000000
					CHANNELS 3 Zrotation Yrotation Xrotation 
					JOINT lForeArm
					{
						OFFSET 10.129278 0.000000 0.000000
						CHANNELS 3 Yrotation Zrotation Xrotation 
						JOINT lHand
						{
							OFFSET 8.486692 0.000000 0.000000
							CHANNELS 3 Zrotation Yrotation Xrotation 
							End Site
							{
								OFFSET 4.106464 0.000000 0.000000
							}
						}
					}
				}
			}
			JOINT rCollar
			{
				OFFSET -3.558935 6.707223 -0.821293
				CHANNELS 3 Yrotation Zrotation Xrotation 
				JOINT rShldr
				{
					OFFSET -3.148289 0.000000 0.000000
					CHANNELS 3 Zrotation Yrotation Xrotation 
					JOINT rForeArm
					{
						OFFSET -10.266159 0.000000 0.000000
						CHANNELS 3 Yrotation Zrotation Xrotation 
						JOINT rHand
						{
							OFFSET -8.349810 0.000000 0.000000
							CHANNELS 3 Zrotation Yrotation Xrotation 
							End Site
							{
								OFFSET -4.106464 0.000000 0.000000
							}
						}
					}
				}
			}
		}
	}
	JOINT lThigh
	{
		OFFSET 5.338403 -1.642589 1.368821
		CHANNELS 3 Xrotation Zrotation Yrotation 
		JOINT lShin
		{
			OFFSET -2.053232 -20.121670 0.000000
			CHANNELS 3 Xrotation Zrotation Yrotation 
			JOINT lFoot
			{
				OFFSET 0.000000 -19.300380 -1.231939
				CHANNELS 3 Xrotation Yrotation Zrotation 
				End Site
				{
					OFFSET 0.000000 -2.463878 4.653993
				}
			}
		}
	}
	JOINT rThigh
	{
		OFFSET -5.338403 -1.642589 1.368821
		CHANNELS 3 Xrotation Zrotation Yrotation 
		JOINT rShin
		{
			OFFSET 2.053232 -20.121670 0.000000
			CHANNELS 3 Xrotation Zrotation Yrotation 
			JOINT rFoot
			{
				OFFSET 0.000000 -19.300380 -1.231939
				CHANNELS 3 Xrotation Yrotation Zrotation 
				End Site
				{
					OFFSET 0.000000 -2.463878 4.653993
				}
			}
		}
	}
}
MOTION
Frames: 11
Frame Time: 0.033325
9.963399 32.387634 -17.424683 17.998297 -0.002417 5.998527 49.936646 -17.965496 10.935330 25.952747 -9.036495 -2.196189 -17.000736 -0.002189 -16.000532 -30.999750 -13.000873 -18.002131 -47.630695 26.147284 -10.866375 -8.562943 -20.957357 -2.245809 -59.641506 -0.310124 -21.571171 -49.494537 0.963208 -41.177933 -15.729304 -10.660171 -6.565504 -24.308184 47.422585 -59.098057 57.540218 -15.151031 14.037325 10.996605 -6.066244 -1.568883 -56.836636 31.867144 2.869558 136.328003 4.628038 -1.453802 58.811405 9.357934 3.067817 -58.701954 -22.023869 -0.762922 136.206543 -4.852631 1.515755 54.379963 -0.665941 4.012891 
9.963399 32.387634 -17.424683 17.998297 -0.002417 5.998527 49.588562 -17.962690 10.948712 25.952747 -9.036495 -2.196189 -17.000736 -0.002189 -16.000532 -30.999750 -13.000873 -18.002131 -48.026649 25.890419 -10.484679 -8.562943 -20.957357 -2.245809 -58.703831 -0.270906 -21.571207 -49.736828 0.639098 -40.765835 -15.275129 -10.377012 -6.201123 -23.681406 47.474308 -58.685307 57.498512 -15.779613 14.127730 10.781147 -5.749977 -1.475421 -56.836636 31.867144 2.869558 136.328003 4.628038 -1.453802 58.811405 9.357934 3.067817 -58.701954 -22.023869 -0.762922 136.206543 -4.852631 1.515755 54.379963 -0.665941 4.012891 
9.963399 32.387634 -17.424683 17.998297 -0.002417 5.998527 49.240429 -17.959803 10.962073 25.952747 -9.036495 -2.196189 -17.000736 -0.002189 -16.000532 -30.999750 -13.000873 -18.002131 -48.419964 25.631126 -10.105680 -8.562943 -20.957357 -2.245809 -57.765156 -0.231648 -21.571896 -49.981525 0.316619 -40.352207 -14.822998 -10.090900 -5.839200 -23.053347 47.522957 -58.271233 57.457684 -16.408569 14.217990 10.566290 -5.433305 -1.383189 -56.836636 31.867144 2.869558 136.328003 4.628038 -1.453802 58.811405 9.357934 3.067817 -58.701954 -22.023869 -0.762922 136.206543 -4.852631 1.515755 54.379963 -0.665941 4.012891 
9.963399 32.387634 -17.424683 17.998297 -0.002417 5.998527 48.892265 -17.956839 10.975421 25.952747 -9.036495 -2.196189 -17.000736 -0.002189 -16.000532 -30.999750 -13.000873 -18.002131 -48.810616 25.369442 -9.729387 -8.562943 -20.957357 -2.245809 -56.825592 -0.192373 -21.573223 -50.228622 -0.004202 -39.937057 -14.372934 -9.801883 -5.479761 -22.424097 47.568562 -57.855965 57.417732 -17.037857 14.308116 10.352015 -5.116241 -1.292182 -56.836636 31.867144 2.869558 136.328003 4.628038 -1.453802 58.811405 9.357934 3.067817 -58.701954 -22.023869 -0.762922 136.206543 -4.852631 1.515755 54.379959 -0.665940 4.012891 
9.963399 32.387634 -17.424683 17.998297 -0.002417 5.998527 48.544064 -17.953802 10.988750 25.952747 -9.036495 -2.196189 -17.000736 -0.002189 -16.000532 -30.999750 -13.000873 -18.002131 -49.198608 25.105400 -9.355806 -8.562943 -20.957357 -2.245809 -55.885269 -0.153093 -21.575195 -50.478123 -0.323320 -39.520393 -13.924962 -9.510005 -5.122828 -21.793734 47.611073 -57.439537 57.378677 -17.667440 14.398128 10.138324 -4.798796 -1.202397 -56.836636 31.867144 2.869558 136.328003 4.628038 -1.453802 58.811405 9.357934 3.067817 -58.701954 -22.023869 -0.762922 136.206543 -4.852631 1.515755 54.379963 -0.665941 4.012891 
9.963399 32.387634 -17.424683 17.998297 -0.002417 5.998527 48.195854 -17.950689 11.002064 25.952747 -9.036495 -2.196189 -17.000736 -0.002189 -16.000532 -30.999750 -13.000873 -18.002131 -49.583931 24.839035 -8.984941 -8.562943 -20.957357 -2.245809 -54.944302 -0.113823 -21.577814 -50.730022 -0.640694 -39.102226 -13.479099 -9.215313 -4.768424 -21.162354 47.650520 -57.022076 57.340511 -18.297281 14.488035 9.925199 -4.480983 -1.113830 -56.836636 31.867144 2.869556 136.328003 4.628038 -1.453802 58.811405 9.357934 3.067817 -58.701954 -22.023869 -0.762922 136.206543 -4.852631 1.515755 54.379967 -0.665941 4.012891 
9.963399 32.387634 -17.424683 17.998297 -0.002417 5.998527 47.847614 -17.947493 11.015352 25.952747 -9.036495 -2.196189 -17.000736 -0.002189 -16.000532 -30.999750 -13.000873 -18.002131 -49.966560 24.570379 -8.616799 -8.562943 -20.957357 -2.245809 -54.002831 -0.074581 -21.581079 -50.984287 -0.956283 -38.682537 -13.035357 -8.917846 -4.416565 -20.530024 47.686848 -56.603626 57.303246 -18.927334 14.577859 9.712642 -4.162817 -1.026479 -56.836639 31.867146 2.869559 136.328003 4.628038 -1.453802 58.811405 9.357934 3.067817 -58.701954 -22.023869 -0.762922 136.206543 -4.852631 1.515755 54.379959 -0.665941 4.012891 
9.963399 32.387634 -17.424683 17.998297 -0.002417 5.998527 47.499374 -17.944223 11.028626 25.952747 -9.036495 -2.196189 -17.000736 -0.002189 -16.000532 -30.999750 -13.000873 -18.002131 -50.346512 24.299475 -8.251377 -8.562943 -20.957357 -2.245809 -53.060978 -0.035381 -21.584991 -51.240936 -1.270041 -38.261353 -12.593754 -8.617655 -4.067272 -19.896849 47.720066 -56.184299 57.266884 -19.557562 14.667609 9.500637 -3.844308 -0.940339 -56.836639 31.867146 2.869557 136.328003 4.628038 -1.453802 58.811405 9.357934 3.067817 -58.701954 -22.023869 -0.762922 136.206543 -4.852631 1.515755 54.379967 -0.665941 4.012891 
9.963399 32.387634 -17.424683 17.998297 -0.002417 5.998527 47.151108 -17.940874 11.041872 25.952747 -9.036495 -2.196189 -17.000736 -0.002189 -16.000532 -30.999750 -13.000873 -18.002131 -50.723801 24.026360 -7.888683 -8.562943 -20.957357 -2.245809 -52.118858 0.003759 -21.589546 -51.499950 -1.581939 -37.838665 -12.154307 -8.314785 -3.720564 -19.262911 47.750179 -55.764183 57.231411 -20.187916 14.757300 9.289177 -3.525468 -0.855407 -56.836636 31.867144 2.869558 136.328003 4.628038 -1.453802 58.811405 9.357934 3.067817 -58.701954 -22.023869 -0.762922 136.206543 -4.852631 1.515755 54.379963 -0.665940 4.012891 
9.963399 32.387634 -17.424683 17.998297 -0.002417 5.998527 46.802856 -17.937450 11.055103 25.952747 -9.036495 -2.196189 -17.000736 -0.002189 -16.000532 -30.999750 -13.000874 -18.002132 -51.098396 23.751074 -7.528718 -8.562943 -20.957357 -2.245809 -51.176609 0.042825 -21.594748 -51.761307 -1.891928 -37.414471 -11.717031 -8.009286 -3.376457 -18.628290 47.777161 -55.343349 57.196846 -20.818361 14.846948 9.078255 -3.206311 -0.771680 -56.836639 31.867146 2.869558 136.328003 4.628038 -1.453802 58.811405 9.357934 3.067817 -58.701954 -22.023869 -0.762922 136.206543 -4.852631 1.515755 54.379959 -0.665941 4.012891 
9.963399 32.387634 -17.424683 17.998297 -0.002417 5.998527 46.454617 -17.933952 11.068311 25.952747 -9.036495 -2.196189 -17.000736 -0.002189 -16.000532 -30.999750 -13.000873 -18.002131 -51.470306 23.473642 -7.171478 -8.562943 -20.957357 -2.245809 -50.234364 0.081800 -21.600594 -52.025005 -2.199971 -36.988785 -11.281933 -7.701200 -3.034966 -17.993069 47.800976 -54.921864 57.163197 -21.448856 14.936570 8.867865 -2.886849 -0.689156 -56.836636 31.867144 2.869558 136.328003 4.628038 -1.453802 58.811405 9.357934 3.067817 -58.701954 -22.023869 -0.762922 136.206543 -4.852631 1.515755 54.379967 -0.665941 4.012891 
